<svg width="1492" height="482" viewBox="0 0 1492 482" fill="none" xmlns="http://www.w3.org/2000/svg">
<g filter="url(#filter0_b)">
<path d="M545.94 332.005C551.066 329.869 556.53 328.657 562.078 328.428L1213.69 301.455C1218.84 301.241 1220.9 308.028 1216.5 310.717L1000.21 442.811C985.302 451.918 968.169 456.736 950.697 456.736H276.675C270.117 456.736 268.313 447.721 274.366 445.198L545.94 332.005Z" fill="url(#paint0_linear)"/>
</g>
<g filter="url(#filter1_f)">
<path d="M504.137 464.485H1486L798.729 475.554H6L504.137 464.485Z" fill="url(#paint1_linear)" fill-opacity="0.2"/>
</g>
<path fill-rule="evenodd" clip-rule="evenodd" d="M552.042 249.058C543.807 249.606 535.861 252.313 529.004 256.906L248.691 444.689C244.039 447.805 245.863 454.831 251.073 455.604C251.995 457.507 253.89 458.949 256.458 458.949H929.026C953.916 458.949 977.811 449.181 995.574 431.745L1204.3 226.857C1209.85 221.413 1207.22 212.65 1200.78 210.309C1198.9 207.85 1195.89 206.222 1192.21 206.467L552.042 249.058ZM1200.78 210.309C1199.53 209.855 1198.14 209.642 1196.64 209.743L556.47 252.334C548.235 252.881 540.289 255.588 533.432 260.182L253.119 447.964C250.327 449.835 249.868 453.114 251.073 455.604C251.381 455.65 251.7 455.673 252.03 455.673H924.598C949.488 455.673 973.384 445.905 991.146 428.47L1199.88 223.581C1203.87 219.666 1203.63 214.034 1200.78 210.309Z" fill="url(#paint2_linear)"/>
<g filter="url(#filter2_b)">
<path d="M522.207 199.095C529.717 192.546 539.114 188.553 549.042 187.693L1197.01 131.575C1203.11 131.048 1206.9 138.045 1203.13 142.864L986.014 420.286C968.008 443.293 940.417 456.736 911.201 456.736H242.768C237.223 456.736 234.646 449.858 238.825 446.214L522.207 199.095Z" fill="url(#paint3_linear)"/>
</g>
<g filter="url(#filter3_b)">
<path fill-rule="evenodd" clip-rule="evenodd" d="M673.966 456.14H892.83C925.075 456.14 955.119 439.784 972.62 412.702L1200.25 60.4487L959.52 85.6979L673.966 456.14Z" fill="url(#paint4_linear)"/>
</g>
<g filter="url(#filter4_b)">
<path fill-rule="evenodd" clip-rule="evenodd" d="M598.692 164.502L334.779 457.775H241.428C236.155 457.775 233.446 451.462 237.079 447.641L484.124 187.784C491.832 179.677 502.178 174.585 513.304 173.423L598.692 164.502Z" fill="url(#paint5_linear)"/>
</g>
<path d="M300.741 320.058C300.229 321.434 299.413 322.554 298.277 323.434L299.333 324.73C300.741 323.594 301.733 322.042 302.309 320.058H303.157C302.837 321.562 302.341 322.778 301.685 323.706C300.917 324.698 299.797 325.594 298.325 326.394L299.365 327.722C301.029 326.762 302.277 325.674 303.109 324.458C303.813 323.386 304.373 321.914 304.757 320.058H305.461C305.365 323.274 305.221 325.082 305.029 325.466C304.821 325.946 304.453 326.202 303.941 326.218C303.365 326.218 302.773 326.186 302.181 326.122L302.645 327.722C303.141 327.754 303.653 327.786 304.181 327.786C305.461 327.754 306.245 327.21 306.533 326.122C306.821 325.034 307.029 322.522 307.141 318.618H301.445C303.077 317.578 304.565 316.49 305.925 315.354V313.914H298.853V315.434H303.445C301.957 316.522 300.341 317.562 298.613 318.538V320.058H300.741ZM292.805 317.402V319.018H294.549V324.458C293.909 324.602 293.285 324.73 292.645 324.826L293.093 326.602C294.853 326.186 296.485 325.69 298.021 325.114V323.37C297.429 323.594 296.837 323.802 296.245 323.994V319.018H298.069V317.402H296.245V313.546H294.549V317.402H292.805Z" fill="black" fill-opacity="0.31"/>
<path d="M310.917 321.018V324.506H315.461V325.882C315.461 326.266 315.333 326.474 315.093 326.474C314.533 326.474 313.941 326.426 313.317 326.362L313.669 327.898H315.637C316.613 327.898 317.109 327.354 317.109 326.282V324.506H321.381V321.018H310.917ZM319.749 323.21H312.533V322.298H319.749V323.21ZM310.581 313.546V318.442H314.853C314.981 318.634 315.109 318.842 315.237 319.066H308.901V320.458H323.237V319.066H317.061C316.965 318.842 316.869 318.634 316.773 318.442H321.573V313.546H310.581ZM319.941 317.162H312.213V316.57H319.941V317.162ZM312.213 315.418V314.826H319.941V315.418H312.213ZM318.917 324.778L318.229 326.09C319.829 326.506 321.349 327.098 322.821 327.834L323.445 326.314C321.989 325.642 320.485 325.13 318.917 324.778ZM312.629 324.666C311.765 325.386 310.453 325.994 308.725 326.49L309.653 327.85C311.269 327.306 312.613 326.602 313.669 325.738L312.629 324.666Z" fill="black" fill-opacity="0.31"/>
<path d="M327.509 313.098L326.725 320.426H335.717C335.717 323.194 335.541 324.874 335.189 325.45C334.869 325.994 333.861 326.266 332.197 326.266C331.877 326.266 331.285 326.218 330.453 326.138L330.917 327.658C331.477 327.706 332.021 327.738 332.549 327.738C334.549 327.738 335.861 327.386 336.469 326.714C337.077 325.994 337.397 323.386 337.397 318.874H328.581L328.805 316.746H338.261V315.146H328.965L329.157 313.226L327.509 313.098ZM324.821 322.506V324.106H333.829V322.506H324.821Z" fill="black" fill-opacity="0.31"/>
<path d="M342.949 316.378V323.514C342.181 323.674 341.397 323.818 340.629 323.946L341.061 325.642C343.141 325.194 345.093 324.634 346.933 323.994V322.314C346.165 322.602 345.397 322.858 344.629 323.082V316.378H346.757V314.762H340.821V316.378H342.949ZM349.365 313.194V316.25H347.013V317.882H349.365V317.978C349.333 322.074 348.197 325.05 345.973 326.906L347.349 328.106C349.765 325.962 350.997 322.586 351.061 317.978V317.882H353.413C353.381 322.106 353.333 324.586 353.237 325.306C353.109 325.946 352.597 326.282 351.733 326.282C351.269 326.282 350.709 326.25 350.069 326.202L350.469 327.77C351.205 327.818 351.733 327.85 352.021 327.85C353.669 327.85 354.597 327.274 354.805 326.122C354.965 324.874 355.045 321.578 355.045 316.25H351.061V313.194H349.365Z" fill="black" fill-opacity="0.31"/>
<path d="M359.221 322.618H362.357V323.658H359.221V322.618ZM362.357 321.242H359.221V320.138H362.357V321.242ZM359.221 325.034H362.357V325.77C362.357 326.186 362.165 326.41 361.813 326.41L360.693 326.33L361.109 327.882H362.341C363.429 327.882 363.973 327.29 363.973 326.122V318.698H357.605V327.994H359.221V325.034ZM369.381 320.298C369.973 320.298 370.421 320.17 370.709 319.93C370.997 319.674 371.205 318.858 371.333 317.514L369.781 317.002C369.749 317.866 369.669 318.378 369.557 318.554C369.445 318.714 369.285 318.794 369.061 318.794H367.237C366.853 318.794 366.677 318.522 366.677 318.01V316.554C368.357 316.298 369.845 316.026 371.157 315.738L370.613 314.266C369.589 314.538 368.277 314.794 366.677 315.05V313.226H365.029V318.346C365.029 319.642 365.605 320.298 366.773 320.298H369.381ZM366.677 324.01C368.277 323.85 369.765 323.594 371.157 323.226L370.613 321.738C369.461 322.09 368.149 322.346 366.677 322.506V320.826H365.029V326.202C365.029 327.21 365.605 327.722 366.757 327.722H369.381C369.973 327.722 370.405 327.594 370.693 327.354C370.981 327.098 371.205 326.298 371.333 324.938L369.813 324.458C369.765 325.322 369.685 325.834 369.557 326.01C369.461 326.17 369.285 326.25 369.061 326.25H367.221C366.853 326.25 366.677 326.106 366.677 325.834V324.01ZM362.837 314.266L361.557 315.082C361.845 315.514 362.133 315.93 362.389 316.346C361.205 316.474 360.085 316.586 359.029 316.65C359.845 315.866 360.565 314.858 361.205 313.61L359.605 313.13C359.125 314.122 358.421 315.194 357.461 316.314C357.253 316.506 356.997 316.634 356.709 316.73L357.157 318.122C359.445 317.994 361.429 317.786 363.093 317.53C363.269 317.866 363.445 318.202 363.605 318.522L364.981 317.546C364.469 316.618 363.765 315.53 362.837 314.266Z" fill="black" fill-opacity="0.31"/>
<g filter="url(#filter5_b)">
<path fill-rule="evenodd" clip-rule="evenodd" d="M1180.27 70.3441L1200.51 32.8933C1204.38 25.7378 1198.54 17.2043 1190.47 18.2165L513.072 103.17C500.852 104.702 489.721 110.97 482.075 120.626L462.539 145.296L1180.27 70.3441Z" fill="url(#paint6_linear)"/>
</g>
<g filter="url(#filter6_b)">
<mask id="path-9-inside-1" fill="white">
<path fill-rule="evenodd" clip-rule="evenodd" d="M673.965 457.662H888.912C923.274 457.662 954.958 439.106 971.768 409.136L1200.25 1.78076L959.519 30.871L673.965 457.662Z"/>
</mask>
<path d="M673.965 457.662L673.134 457.106L672.093 458.662H673.965V457.662ZM971.768 409.136L972.64 409.626L972.64 409.626L971.768 409.136ZM1200.25 1.78076L1201.13 2.26996L1202.09 0.551628L1200.14 0.787984L1200.25 1.78076ZM959.519 30.871L959.399 29.8782L958.943 29.9333L958.688 30.3149L959.519 30.871ZM888.912 456.662H673.965V458.662H888.912V456.662ZM970.896 408.647C954.263 438.301 922.913 456.662 888.912 456.662V458.662C923.636 458.662 955.653 439.911 972.64 409.626L970.896 408.647ZM1199.38 1.29156L970.896 408.647L972.64 409.626L1201.13 2.26996L1199.38 1.29156ZM959.639 31.8638L1200.37 2.77354L1200.14 0.787984L959.399 29.8782L959.639 31.8638ZM958.688 30.3149L673.134 457.106L674.796 458.218L960.35 31.4271L958.688 30.3149Z" fill="url(#paint7_linear)" mask="url(#path-9-inside-1)"/>
</g>
<path d="M1221.12 229.05V243.802H1222.79V229.05H1221.12ZM1232.24 236.058H1224.1V243.722H1225.7V243.002H1230.64V243.722H1232.24V236.058ZM1225.7 241.434V237.61H1227.44V241.434H1225.7ZM1228.98 237.61H1230.64V241.434H1228.98V237.61ZM1228.37 232.666L1227.08 233.466C1227.91 234.346 1228.58 235.146 1229.08 235.866L1230.36 234.954C1229.89 234.314 1229.24 233.546 1228.37 232.666ZM1218.53 231.066V241.162H1220.13V231.066H1218.53ZM1226.15 232.49H1232.58V230.826H1226.92C1227.11 230.346 1227.3 229.834 1227.49 229.306L1225.8 228.922C1225.03 231.098 1224.12 232.778 1223.09 233.962L1224.28 235.37C1224.95 234.554 1225.57 233.594 1226.15 232.49Z" fill="black" fill-opacity="0.31"/>
<path d="M1240.56 228.858C1240.5 229.434 1240.39 229.994 1240.24 230.522H1234.76V232.138H1239.6C1239.36 232.586 1239.08 232.986 1238.76 233.338C1237.78 234.362 1236.18 235.162 1233.94 235.722L1234.61 237.274C1236.47 236.778 1237.96 236.154 1239.04 235.386C1239.78 235.994 1240.48 236.65 1241.12 237.322L1242.28 236.154C1241.48 235.45 1240.77 234.858 1240.13 234.41C1240.68 233.77 1241.12 233.018 1241.48 232.154C1242.28 234.266 1244.4 235.962 1247.89 237.21L1248.79 235.77C1245.81 234.89 1243.94 233.674 1243.17 232.138H1247.94V230.522H1241.97C1242.08 230.042 1242.16 229.546 1242.23 229.034L1240.56 228.858ZM1235.46 238.346C1235.2 239.69 1234.74 240.954 1234.08 242.138L1235.52 243.05C1236.2 241.834 1236.72 240.378 1237.11 238.714L1235.46 238.346ZM1242.04 237.706L1240.56 238.202C1241.06 239.002 1241.52 239.946 1241.94 241.018L1243.48 240.33C1243.06 239.402 1242.58 238.522 1242.04 237.706ZM1246.87 238.074L1245.25 238.602C1245.99 239.754 1246.66 241.066 1247.27 242.57L1248.8 241.882C1248.26 240.522 1247.6 239.258 1246.87 238.074ZM1243.7 243.498C1244.34 243.498 1244.82 243.354 1245.12 243.098C1245.48 242.81 1245.72 241.946 1245.84 240.474L1244.26 239.946C1244.21 240.874 1244.12 241.434 1243.96 241.61C1243.83 241.786 1243.64 241.882 1243.38 241.882H1240.12C1239.7 241.882 1239.49 241.658 1239.49 241.242V238.298H1237.8V241.594C1237.8 242.858 1238.39 243.498 1239.6 243.498H1243.7Z" fill="black" fill-opacity="0.31"/>
<path d="M1254.55 235.018V236.458H1263.36V235.018H1254.55ZM1253.43 237.61V239.114H1256.61C1255.62 240.618 1254.8 241.562 1254.2 241.93C1254.12 241.978 1254 242.026 1253.86 242.074L1254.23 243.466C1257.17 243.274 1259.89 243.002 1262.39 242.666C1262.66 243.05 1262.92 243.434 1263.16 243.818L1264.48 242.874C1263.81 241.882 1262.84 240.714 1261.57 239.37L1260.36 240.122C1260.71 240.538 1261.06 240.954 1261.4 241.37C1259.67 241.626 1257.92 241.834 1256.2 241.978C1256.84 241.322 1257.57 240.362 1258.39 239.114H1264.4V237.61H1253.43ZM1262.1 231.05V232.426H1253.27V231.05H1262.1ZM1253.27 233.93H1263.75V229.53H1251.62V235.034C1251.6 238.138 1251.09 240.682 1250.08 242.65L1251.32 243.754C1252.6 241.322 1253.25 238.41 1253.27 235.034V233.93Z" fill="black" fill-opacity="0.31"/>
<path d="M1231.33 156.408C1229.09 157.048 1226.36 157.368 1223.12 157.368L1223.65 158.92C1224.71 158.92 1225.7 158.888 1226.63 158.824V162.568H1222.18V164.2H1226.63V168.616H1222.98V170.248H1231.97V168.616H1228.29V164.2H1232.77V162.568H1228.29V158.664C1229.75 158.472 1231.04 158.2 1232.16 157.816L1231.33 156.408ZM1221.49 155.944C1220.71 158.36 1219.51 160.456 1217.88 162.232L1218.44 164.024C1218.92 163.528 1219.38 163.016 1219.81 162.504V170.808H1221.48V160.152C1222.12 159.064 1222.64 157.912 1223.06 156.696L1221.49 155.944Z" fill="black" fill-opacity="0.31"/>
<path d="M1238.64 155.896C1238 157.432 1236.76 158.728 1234.9 159.784L1235.91 161.112C1236.52 160.728 1237.09 160.328 1237.62 159.896C1238.23 160.392 1238.88 160.856 1239.59 161.288C1237.96 161.864 1236.1 162.296 1234.02 162.552L1234.79 164.12C1237.32 163.736 1239.52 163.112 1241.43 162.264C1243.41 163.192 1245.64 163.784 1248.12 164.072L1248.87 162.52C1246.82 162.328 1244.95 161.928 1243.27 161.32C1244.58 160.552 1245.7 159.624 1246.64 158.536V157.192H1239.84C1240.02 156.872 1240.18 156.52 1240.34 156.152L1238.64 155.896ZM1241.41 160.52C1240.45 160.04 1239.56 159.464 1238.72 158.792L1238.76 158.76H1244.16C1243.35 159.432 1242.44 160.008 1241.41 160.52ZM1240.2 163.176C1240.18 163.72 1240.13 164.232 1240.04 164.728H1235.14V166.232H1239.52C1239.43 166.392 1239.33 166.568 1239.22 166.744C1238.44 167.816 1236.74 168.728 1234.15 169.48L1235.25 170.84C1238.23 169.88 1240.1 168.696 1240.87 167.272C1241.06 166.952 1241.22 166.6 1241.35 166.232H1245.54C1245.51 167.56 1245.38 168.376 1245.17 168.696C1244.98 169 1244.52 169.16 1243.76 169.176C1243.22 169.16 1242.53 169.128 1241.68 169.08L1242.1 170.584C1242.9 170.648 1243.57 170.68 1244.13 170.68C1245.25 170.68 1246.04 170.392 1246.48 169.832C1246.93 169.272 1247.17 167.576 1247.2 164.728H1241.73C1241.8 164.248 1241.84 163.72 1241.84 163.176H1240.2Z" fill="black" fill-opacity="0.31"/>
<path d="M1254.55 161.96V163.4H1263.36V161.96H1254.55ZM1253.43 164.552V166.056H1256.61C1255.62 167.56 1254.8 168.504 1254.2 168.872C1254.12 168.92 1254 168.968 1253.86 169.016L1254.23 170.408C1257.17 170.216 1259.89 169.944 1262.39 169.608C1262.66 169.992 1262.92 170.376 1263.16 170.76L1264.48 169.816C1263.81 168.824 1262.84 167.656 1261.57 166.312L1260.36 167.064C1260.71 167.48 1261.06 167.896 1261.4 168.312C1259.67 168.568 1257.92 168.776 1256.2 168.92C1256.84 168.264 1257.57 167.304 1258.39 166.056H1264.4V164.552H1253.43ZM1262.1 157.992V159.368H1253.27V157.992H1262.1ZM1253.27 160.872H1263.75V156.472H1251.62V161.976C1251.6 165.08 1251.09 167.624 1250.08 169.592L1251.32 170.696C1252.6 168.264 1253.25 165.352 1253.27 161.976V160.872Z" fill="black" fill-opacity="0.31"/>
<path d="M830.167 300.599V302.199H841.367V300.599H830.167ZM828.919 305.287V306.903H832.887V307.223C832.823 308.791 832.503 310.055 831.895 311.047C831.287 311.943 830.135 312.711 828.407 313.319L829.303 314.727C831.095 314.103 832.375 313.223 833.175 312.103C833.991 310.887 834.439 309.255 834.519 307.223V306.903H836.887V312.663C836.887 313.831 837.447 314.423 838.583 314.423H841.127C841.687 314.423 842.103 314.247 842.391 313.927C842.679 313.591 842.887 312.519 842.999 310.711L841.495 310.231C841.463 311.527 841.383 312.311 841.271 312.567C841.175 312.807 841.015 312.935 840.823 312.935H839.063C838.695 312.935 838.519 312.727 838.519 312.311V306.903H842.759V305.287H828.919Z" fill="black" fill-opacity="0.31"/>
<path d="M845.575 300.839V302.183H851.031V302.887H846.247V304.167H851.031V304.855H844.887V306.247H849.575C848.839 306.775 848.199 307.127 847.671 307.287C847.383 307.415 847.079 307.511 846.743 307.543L847.031 308.711C848.247 308.663 849.415 308.615 850.535 308.551C849.287 309.095 848.023 309.527 846.743 309.879C846.423 309.847 846.135 309.831 845.847 309.799L846.167 311.159L848.071 311.111C848.807 311.111 849.831 311.079 851.111 311.015V312.839C851.111 313.143 850.967 313.303 850.711 313.303C850.295 313.303 849.847 313.271 849.383 313.223L849.719 314.695H851.239C852.231 314.695 852.743 314.199 852.743 313.207V310.919C853.799 310.855 854.983 310.759 856.327 310.663C856.615 311.015 856.887 311.367 857.127 311.703L858.295 310.903C857.687 310.071 856.807 309.111 855.655 308.007L854.519 308.727C854.807 309.015 855.079 309.303 855.367 309.591C853.191 309.783 851.303 309.895 849.703 309.943C851.815 309.255 853.895 308.343 855.959 307.223L854.695 306.375C854.055 306.759 853.415 307.127 852.775 307.479C851.575 307.543 850.375 307.591 849.191 307.639C849.991 307.255 850.775 306.791 851.511 306.247H858.791V304.855H852.695V304.167H857.415V302.887H852.695V302.183H858.087V300.839H852.695V299.847H851.031V300.839H845.575ZM849.047 311.335C847.927 312.039 846.471 312.615 844.711 313.063L845.367 314.439C847.175 313.895 848.711 313.207 849.975 312.391L849.047 311.335ZM854.423 311.287L853.639 312.455C855.175 312.951 856.679 313.639 858.119 314.503L858.935 313.223C857.575 312.471 856.071 311.831 854.423 311.287Z" fill="black" fill-opacity="0.31"/>
<path d="M863.271 299.815L862.487 307.143H871.479C871.479 309.911 871.303 311.591 870.951 312.167C870.631 312.711 869.623 312.983 867.959 312.983C867.639 312.983 867.047 312.935 866.215 312.855L866.679 314.375C867.239 314.423 867.783 314.455 868.311 314.455C870.311 314.455 871.623 314.103 872.231 313.431C872.839 312.711 873.159 310.103 873.159 305.591H864.343L864.567 303.463H874.023V301.863H864.727L864.919 299.943L863.271 299.815ZM860.583 309.223V310.823H869.591V309.223H860.583Z" fill="black" fill-opacity="0.31"/>
<path d="M882.583 300.647V308.615H890.407V300.647H882.583ZM888.727 307.015H884.247V302.263H888.727V307.015ZM878.679 299.975L877.511 301.127C878.631 301.959 879.511 302.727 880.119 303.463L881.255 302.311C880.551 301.543 879.687 300.759 878.679 299.975ZM876.439 304.599V306.199H878.599V311.879C878.599 312.215 878.455 312.503 878.183 312.743L878.823 314.247C879.927 313.495 880.967 312.647 881.959 311.687L881.495 309.943C881.047 310.391 880.615 310.807 880.215 311.175V304.599H876.439ZM884.247 309.271C883.495 310.999 882.583 312.487 881.527 313.719L882.999 314.791C884.055 313.447 884.951 311.831 885.719 309.975L884.247 309.271ZM888.615 309.191L887.255 310.055C888.407 311.751 889.319 313.303 889.991 314.711L891.431 313.703C890.775 312.423 889.831 310.919 888.615 309.191Z" fill="black" fill-opacity="0.31"/>
<path d="M895.655 305.863C895.623 306.391 895.575 306.903 895.543 307.383H892.711V308.935H895.303C895.175 309.495 895.031 309.975 894.855 310.375C894.375 311.527 893.527 312.503 892.343 313.319L893.415 314.663C894.791 313.639 895.767 312.455 896.359 311.079C896.583 310.503 896.791 309.799 896.951 308.935H898.919C898.887 310.663 898.839 311.671 898.759 311.959C898.647 312.663 898.263 313.015 897.607 313.015C897.255 313.015 896.823 312.983 896.343 312.951L896.743 314.407C897.271 314.455 897.655 314.487 897.879 314.487C899.335 314.487 900.151 313.879 900.311 312.695C900.471 312.023 900.551 310.247 900.551 307.383H897.159C897.207 306.903 897.255 306.407 897.287 305.863H900.327V300.375H893.239V305.863H895.655ZM901.767 301.287V311.127H903.399V301.287H901.767ZM904.983 314.535C906.135 314.535 906.727 313.911 906.727 312.695V299.927H905.063V312.263C905.063 312.775 904.839 313.047 904.407 313.047C903.751 313.047 903.047 313.015 902.311 312.951L902.679 314.535H904.983ZM898.743 304.359H894.823V301.879H898.743V304.359Z" fill="black" fill-opacity="0.31"/>
<path d="M728.48 63.7681L726.672 64.0561C726.848 64.3761 727.008 64.7121 727.168 65.0641H721.2V68.2641H722.832V66.6001H733.168V68.1841H734.8V65.0641H728.944C728.784 64.5841 728.64 64.1521 728.48 63.7681ZM727.408 68.9041C725.824 70.5681 723.584 71.9281 720.672 72.9521L721.552 74.2961C722.08 74.1041 722.608 73.8801 723.136 73.6561V78.6801H724.768V78.1361H731.408V78.6801H733.024V73.7361C733.456 73.9281 733.92 74.1041 734.432 74.2961L735.312 72.9521C732.144 71.8001 729.92 70.4401 728.624 68.9041H727.408ZM724.768 76.6321V74.5521H731.408V76.6321H724.768ZM724.304 73.0801C725.712 72.3121 726.96 71.4001 728.016 70.3281C728.928 71.3521 730.144 72.2641 731.68 73.0801H724.304ZM730.048 66.9041L728.992 67.9441C731.04 69.0321 732.64 70.0561 733.76 71.0001L734.912 69.8641C733.6 68.8721 731.968 67.8961 730.048 66.9041ZM725.92 66.9041C724.592 67.9921 722.96 68.9521 721.008 69.7521L721.984 71.0481C723.968 70.1521 725.648 69.0961 727.008 67.8801L725.92 66.9041Z" fill="black" fill-opacity="0.31"/>
<path d="M738.096 64.3601V68.6161H743.328V64.3601H738.096ZM741.824 67.2401H739.6V65.7681H741.824V67.2401ZM744.704 64.3601V68.6161H747.84L746.768 68.9681C746.96 69.2241 747.136 69.4961 747.328 69.8001H743.984C744.144 69.5121 744.288 69.2081 744.416 68.9041L742.832 68.7281C742.672 69.0801 742.464 69.4481 742.208 69.8001H736.88V71.2721H740.656C739.632 71.9761 738.288 72.5681 736.592 73.0481L737.36 74.4241C737.68 74.3281 737.984 74.2161 738.304 74.1041V78.6801H739.76V78.0721H741.92V78.6801H743.392V73.3681H740.032C741.184 72.7921 742.144 72.0881 742.912 71.2721H745.472C746.144 72.0401 747.056 72.7441 748.24 73.3681H744.592V78.6801H746.064V78.0721H748.496V78.6801H749.968V74.1521C750.192 74.2481 750.464 74.3441 750.752 74.4401L751.424 73.0161C749.68 72.5681 748.32 71.9921 747.344 71.2721H751.12V69.8001H748.96C748.752 69.3841 748.512 69.0001 748.256 68.6161H750.096V64.3601H744.704ZM748.592 67.2401H746.208V65.7681H748.592V67.2401ZM739.76 76.6641V74.7441H741.92V76.6641H739.76ZM746.064 76.6641V74.7441H748.496V76.6641H746.064Z" fill="black" fill-opacity="0.31"/>
<path d="M755.44 63.8001L754.656 71.1281H763.648C763.648 73.8961 763.472 75.5761 763.12 76.1521C762.8 76.6961 761.792 76.9681 760.128 76.9681C759.808 76.9681 759.216 76.9201 758.384 76.8401L758.848 78.3601C759.408 78.4081 759.952 78.4401 760.48 78.4401C762.48 78.4401 763.792 78.0881 764.4 77.4161C765.008 76.6961 765.328 74.0881 765.328 69.5761H756.512L756.736 67.4481H766.192V65.8481H756.896L757.088 63.9281L755.44 63.8001ZM752.752 73.2081V74.8081H761.76V73.2081H752.752Z" fill="black" fill-opacity="0.31"/>
<path d="M772.288 71.0641C772.576 71.5761 772.896 72.2001 773.264 72.9041L774.176 71.5441C773.536 70.6801 772.912 69.8961 772.288 69.1761V68.4081H773.824V66.8241H772.288V63.8641H770.688V66.8241H768.8V68.4081H770.624C770.176 70.2001 769.44 71.7841 768.448 73.1761L769.184 75.0001C769.776 73.9761 770.272 72.8561 770.688 71.6401V78.6161H772.288V71.0641ZM776.704 66.9681V68.4401H778.912V70.6001H777.04V72.0401H778.912V74.4721H776.512V75.9441H782.928V74.4721H780.464V72.0401H782.4V70.6001H780.464V68.4401H782.656V66.9681H776.704ZM774.416 64.2961V78.3921H783.408V76.8401H776.016V65.8641H783.152V64.2961H774.416Z" fill="black" fill-opacity="0.31"/>
<path d="M792.992 64.7921V70.7601H798.528V64.7921H792.992ZM796.944 69.2561H794.576V66.2801H796.944V69.2561ZM787.136 63.9121V65.1921H785.056V66.6321H787.008C786.72 68.3281 785.92 69.6081 784.592 70.4721L785.824 71.5761C787.408 70.4561 788.352 68.8081 788.656 66.6321H790.368C790.352 68.0401 790.288 68.9201 790.16 69.2401C790.032 69.5601 789.712 69.7361 789.2 69.7521C788.96 69.7361 788.656 69.7041 788.272 69.6561L788.688 71.1601C789.04 71.2241 789.328 71.2561 789.584 71.2561C790.464 71.2561 791.088 70.9681 791.44 70.3921C791.792 69.8161 791.968 68.0881 792 65.1921H788.768V63.9121H787.136ZM784.928 72.3921V73.9601H789.728C788.576 75.0801 786.912 76.0241 784.72 76.7921L785.68 78.3441C788.176 77.1921 790.016 75.7361 791.168 73.9921V78.6481H792.832V73.9921C793.92 75.5761 795.696 77.0321 798.16 78.3441L799.312 76.8881C797.04 76.0241 795.344 75.0481 794.256 73.9601H799.088V72.3921H792.832V71.2561H791.168V72.3921H784.928Z" fill="black" fill-opacity="0.31"/>
<path d="M1087.24 9.19988L1090.46 9.19988V10.6239L1087.14 10.6239C1087.19 10.1919 1087.22 9.74388 1087.24 9.26388V9.19988ZM1086.9 12.0959L1090.46 12.0959V15.3759H1092.1V12.0959H1095.62V13.4239C1095.62 13.8879 1095.4 14.1279 1094.95 14.1279C1094.36 14.1279 1093.72 14.0959 1093.03 14.0479L1093.43 15.5839H1095.43C1096.65 15.5839 1097.27 15.0559 1097.27 13.9999V4.67188H1093.58C1094.14 4.25588 1094.7 3.75988 1095.26 3.21588V1.99988L1089.56 1.99988C1089.75 1.71188 1089.96 1.42388 1090.15 1.13588L1088.47 0.751875C1087.11 2.70388 1085.51 4.22388 1083.66 5.27988L1084.73 6.57588C1085.02 6.38388 1085.32 6.19188 1085.61 5.98388V9.39188C1085.58 11.5039 1084.98 13.2319 1083.83 14.5759L1085.11 15.7439C1085.96 14.7199 1086.55 13.5039 1086.9 12.0959ZM1095.62 10.6239H1092.1V9.19988H1095.62V10.6239ZM1095.62 7.72788H1092.1V6.17588H1095.62V7.72788ZM1087.22 4.67188C1087.64 4.28788 1088.04 3.87188 1088.42 3.43988L1092.94 3.43988C1092.36 3.88788 1091.8 4.30388 1091.24 4.67188H1087.22ZM1090.46 6.17588V7.72788H1087.24V6.17588H1090.46Z" fill="black" fill-opacity="0.31"/>
<path d="M1106.46 6.84788V9.19988H1103.24V6.84788H1106.46ZM1108.14 9.19988V6.84788L1111.35 6.84788V9.19988L1108.14 9.19988ZM1109.69 5.27988C1110.17 4.75188 1110.63 4.14388 1111.1 3.43988V2.19188L1105.5 2.19188C1105.75 1.83988 1105.99 1.48787 1106.25 1.13588L1104.54 0.751875C1103.13 2.70388 1101.46 4.22388 1099.56 5.27988L1100.68 6.65588L1101.54 6.07988V13.7759C1101.54 14.8639 1102.1 15.4079 1103.22 15.4079L1111.82 15.4079C1112.82 15.3759 1113.46 14.9759 1113.75 14.2399C1113.93 13.7919 1114.09 13.0559 1114.22 12.0159L1112.57 11.5039C1112.44 12.5439 1112.31 13.1519 1112.18 13.3439C1112.02 13.6159 1111.72 13.7599 1111.26 13.7919H1103.94C1103.46 13.7919 1103.24 13.5519 1103.24 13.1039V10.7839L1113.03 10.7839V5.27988H1109.69ZM1104.25 3.69588L1108.92 3.69588C1108.44 4.30388 1107.96 4.83188 1107.5 5.27988L1102.57 5.27988C1103.14 4.79988 1103.7 4.27188 1104.25 3.69588Z" fill="black" fill-opacity="0.31"/>
<path d="M1118.44 0.799875L1117.66 8.12788L1126.65 8.12788C1126.65 10.8959 1126.47 12.5759 1126.12 13.1519C1125.8 13.6959 1124.79 13.9679 1123.13 13.9679C1122.81 13.9679 1122.22 13.9199 1121.38 13.8399L1121.85 15.3599C1122.41 15.4079 1122.95 15.4399 1123.48 15.4399C1125.48 15.4399 1126.79 15.0879 1127.4 14.4159C1128.01 13.6959 1128.33 11.0879 1128.33 6.57588L1119.51 6.57588L1119.74 4.44788L1129.19 4.44788V2.84788L1119.9 2.84788L1120.09 0.927876L1118.44 0.799875ZM1115.75 10.2079V11.8079L1124.76 11.8079V10.2079L1115.75 10.2079Z" fill="black" fill-opacity="0.31"/>
<path d="M1133.02 1.03988L1132.18 2.27188C1133.06 2.55988 1133.93 2.97588 1134.76 3.50388L1135.66 2.15988C1134.86 1.71188 1133.98 1.34388 1133.02 1.03988ZM1137.78 0.783875C1137.43 1.87188 1136.78 2.76788 1135.78 3.50388L1136.78 4.79988C1137.34 4.35188 1137.83 3.85588 1138.25 3.31188H1139.85C1139.64 3.99988 1139.29 4.55988 1138.81 4.99188C1138.15 5.53588 1137.08 5.96788 1135.59 6.27188L1136.22 7.75988C1138.06 7.32788 1139.35 6.73588 1140.09 5.96788C1140.23 5.80788 1140.38 5.63188 1140.54 5.43988C1141.54 6.59188 1143.16 7.39188 1145.4 7.85588L1145.99 6.39988C1143.66 5.98388 1142.07 5.21588 1141.22 4.12788C1141.3 3.87188 1141.38 3.59988 1141.45 3.31188L1143.61 3.31188C1143.45 3.82388 1143.26 4.28788 1143.03 4.68788L1144.63 5.16788C1144.92 4.39988 1145.14 3.61588 1145.32 2.84788V1.85588L1139.1 1.85588C1139.22 1.58388 1139.34 1.29588 1139.43 0.991876L1137.78 0.783875ZM1144.26 7.93588L1133.7 7.93588V12.9119H1135.37V9.48788H1142.58V12.7199H1144.26V7.93588ZM1138.26 9.85588C1138.15 11.3599 1137.75 12.4319 1137.05 13.0559C1136.25 13.6799 1134.6 14.0479 1132.1 14.1599L1132.78 15.6799C1135.8 15.4239 1137.7 14.8799 1138.49 14.0319C1139.22 13.3919 1139.72 12.0319 1139.94 9.98388L1138.26 9.85588ZM1134.97 4.12788C1134.14 4.86388 1133.1 5.56788 1131.86 6.20788L1132.95 7.50388C1134.14 6.79988 1135.13 6.06388 1135.93 5.26388L1134.97 4.12788ZM1140.22 12.5919L1139.37 13.8559C1141.29 14.3199 1143.14 14.9759 1144.97 15.8079L1145.86 14.4159C1144.17 13.6959 1142.28 13.0879 1140.22 12.5919Z" fill="black" fill-opacity="0.31"/>
<path d="M1155.27 0.671875L1153.51 0.959875C1153.75 1.37588 1153.98 1.83988 1154.18 2.35188L1148.63 2.35188V3.93588L1151.45 3.93588L1151.98 5.88788H1148.76V9.58388C1148.73 11.6799 1148.3 13.3119 1147.48 14.4959L1148.74 15.6319C1149.83 14.1119 1150.39 12.0959 1150.46 9.58388V7.50388L1161.75 7.50388V5.88788L1158.14 5.88788C1158.39 5.24788 1158.6 4.60788 1158.76 3.93588L1161.42 3.93588V2.35188L1155.9 2.35188C1155.7 1.72788 1155.5 1.16788 1155.27 0.671875ZM1153.62 5.88788L1153.1 3.93588L1157.16 3.93588C1157 4.60788 1156.79 5.24788 1156.52 5.88788H1153.62Z" fill="black" fill-opacity="0.31"/>
<path d="M955.351 387.164V388.748H961.367V387.164H955.351ZM954.759 391.468V393.1H956.743C956.055 395.692 955.495 397.292 955.079 397.9C955.015 397.948 954.903 397.996 954.743 398.044L955.127 399.612C957.047 399.26 958.855 398.812 960.535 398.236C960.663 398.54 960.791 398.86 960.919 399.212L962.295 398.508C961.943 399.068 961.543 399.58 961.079 400.028L962.343 401.132C964.519 399.004 965.623 395.644 965.671 391.052V390.924H967.495C967.463 395.164 967.415 397.644 967.319 398.364C967.191 399.068 966.807 399.42 966.135 399.42C965.719 399.42 965.239 399.388 964.679 399.356L965.063 400.812C965.703 400.86 966.135 400.892 966.391 400.892C967.863 400.892 968.695 400.3 968.887 399.116C969.031 397.868 969.111 394.604 969.111 389.324H965.671V386.252H964.007V389.324H962.039V390.924H964.007V391.052C963.975 394.092 963.431 396.556 962.359 398.412C961.687 396.812 960.983 395.356 960.279 394.044L958.887 394.716C959.239 395.388 959.591 396.092 959.943 396.86C958.967 397.212 957.975 397.516 956.967 397.74C957.367 396.716 957.831 395.18 958.359 393.1H961.943V391.468H954.759Z" fill="black" fill-opacity="0.31"/>
<path d="M977.159 386.044C977.095 386.62 976.983 387.18 976.839 387.708H971.351V389.324H976.199C975.959 389.772 975.671 390.172 975.351 390.524C974.375 391.548 972.775 392.348 970.535 392.908L971.207 394.46C973.063 393.964 974.551 393.34 975.639 392.572C976.375 393.18 977.079 393.836 977.719 394.508L978.871 393.34C978.071 392.636 977.367 392.044 976.727 391.596C977.271 390.956 977.719 390.204 978.071 389.34C978.871 391.452 980.999 393.148 984.487 394.396L985.383 392.956C982.407 392.076 980.535 390.86 979.767 389.324H984.535V387.708H978.567C978.679 387.228 978.759 386.732 978.823 386.22L977.159 386.044ZM972.055 395.532C971.799 396.876 971.335 398.14 970.679 399.324L972.119 400.236C972.791 399.02 973.319 397.564 973.703 395.9L972.055 395.532ZM978.631 394.892L977.159 395.388C977.655 396.188 978.119 397.132 978.535 398.204L980.071 397.516C979.655 396.588 979.175 395.708 978.631 394.892ZM983.463 395.26L981.847 395.788C982.583 396.94 983.255 398.252 983.863 399.756L985.399 399.068C984.855 397.708 984.199 396.444 983.463 395.26ZM980.295 400.684C980.935 400.684 981.415 400.54 981.719 400.284C982.071 399.996 982.311 399.132 982.439 397.66L980.855 397.132C980.807 398.06 980.711 398.62 980.551 398.796C980.423 398.972 980.231 399.068 979.975 399.068H976.711C976.295 399.068 976.087 398.844 976.087 398.428V395.484H974.391V398.78C974.391 400.044 974.983 400.684 976.199 400.684H980.295Z" fill="black" fill-opacity="0.31"/>
<path d="M989.463 386.156L988.679 393.484H997.671C997.671 396.252 997.495 397.932 997.143 398.508C996.823 399.052 995.815 399.324 994.151 399.324C993.831 399.324 993.239 399.276 992.407 399.196L992.871 400.716C993.431 400.764 993.975 400.796 994.503 400.796C996.503 400.796 997.815 400.444 998.423 399.772C999.031 399.052 999.351 396.444 999.351 391.932H990.535L990.759 389.804H1000.22V388.204H990.919L991.111 386.284L989.463 386.156ZM986.775 395.564V397.164H995.783V395.564H986.775Z" fill="black" fill-opacity="0.31"/>
<path d="M1007.34 392.588C1007.83 394.348 1008.84 395.948 1010.34 397.388C1009.03 398.3 1007.43 399.068 1005.53 399.708L1006.44 401.132C1008.5 400.428 1010.25 399.532 1011.66 398.476C1012.95 399.452 1014.57 400.332 1016.49 401.132L1017.42 399.644C1015.66 399.004 1014.14 398.252 1012.89 397.42C1014.33 396.044 1015.3 394.396 1015.82 392.492V391.02H1006.33V388.796C1010.02 388.7 1013.37 388.332 1016.34 387.724L1015.56 386.3C1012.38 386.94 1008.74 387.276 1004.66 387.34V392.188C1004.57 395.42 1003.9 397.948 1002.65 399.772L1003.85 401.036C1005.32 398.924 1006.15 396.108 1006.31 392.588H1007.34ZM1011.56 396.412C1010.26 395.292 1009.38 394.012 1008.94 392.588H1014.15C1013.64 394.012 1012.78 395.292 1011.56 396.412Z" fill="black" fill-opacity="0.31"/>
<path d="M1024.97 387.02V390.46H1027.91V391.1H1024.22V392.508H1033.21V391.1H1029.51V390.46H1032.49V387.02H1029.51V386.204H1027.91V387.02H1024.97ZM1031.03 389.18H1029.51V388.3H1031.03V389.18ZM1027.91 389.18H1026.42V388.3H1027.91V389.18ZM1032.34 393.148H1024.95V398.172H1026.5V394.524H1030.79V398.172H1032.34V393.148ZM1029.96 398.028L1029.13 399.244C1030.28 399.692 1031.4 400.3 1032.47 401.1L1033.38 399.708C1032.36 399.036 1031.21 398.476 1029.96 398.028ZM1027.78 394.94V396.508C1027.72 397.324 1027.43 397.996 1026.9 398.508C1026.36 398.988 1025.3 399.372 1023.77 399.692L1024.66 401.1C1026.28 400.732 1027.45 400.204 1028.17 399.5C1028.9 398.748 1029.32 397.756 1029.38 396.508V394.94H1027.78ZM1021.16 390.3H1022.65C1022.42 390.764 1022.18 391.164 1021.93 391.516L1023.13 392.476C1023.58 391.836 1024.01 391.02 1024.41 390.06V388.764H1021.62C1021.78 388.092 1021.93 387.356 1022.06 386.588L1020.42 386.316C1020.09 388.78 1019.43 390.732 1018.47 392.204L1019.51 393.484C1020.17 392.62 1020.71 391.548 1021.16 390.3ZM1020.7 392.156V398.524C1020.7 398.908 1020.55 399.18 1020.26 399.372L1020.92 400.764C1022.23 400.252 1023.37 399.612 1024.36 398.844L1024.06 397.308C1023.48 397.852 1022.89 398.3 1022.3 398.652V392.156H1020.7Z" fill="black" fill-opacity="0.31"/>
<path d="M1220.17 316.941V326.509H1213.85V328.125H1228.17V326.509H1221.86V316.941H1227.19V315.341H1214.86V316.941H1220.17Z" fill="black" fill-opacity="0.31"/>
<path d="M1236.97 317.981H1237.43V329.117H1239.13V325.549H1243.54V323.933H1239.13V321.741H1243.54V320.109H1239.13V317.981H1244.15V316.333H1237.7C1237.93 315.741 1238.15 315.133 1238.38 314.493L1236.68 314.109C1235.72 316.861 1234.6 318.973 1233.32 320.477L1234.52 321.917C1235.42 320.829 1236.23 319.517 1236.97 317.981ZM1231.37 320.749V329.117H1233.06V318.349C1233.7 317.261 1234.23 316.109 1234.63 314.909L1233.05 314.173C1232.26 316.573 1231.06 318.669 1229.45 320.445L1230.01 322.237C1230.49 321.757 1230.94 321.261 1231.37 320.749Z" fill="black" fill-opacity="0.31"/>
<path d="M1250.12 320.253V321.693H1258.94V320.253H1250.12ZM1249 322.845V324.349H1252.18C1251.19 325.853 1250.38 326.797 1249.77 327.165C1249.69 327.213 1249.58 327.261 1249.43 327.309L1249.8 328.701C1252.74 328.509 1255.46 328.237 1257.96 327.901C1258.23 328.285 1258.49 328.669 1258.73 329.053L1260.06 328.109C1259.38 327.117 1258.41 325.949 1257.14 324.605L1255.93 325.357C1256.28 325.773 1256.63 326.189 1256.97 326.605C1255.24 326.861 1253.5 327.069 1251.77 327.213C1252.41 326.557 1253.14 325.597 1253.96 324.349H1259.98V322.845H1249ZM1257.67 316.285V317.661H1248.84V316.285H1257.67ZM1248.84 319.165H1259.32V314.765H1247.19V320.269C1247.18 323.373 1246.66 325.917 1245.66 327.885L1246.89 328.989C1248.17 326.557 1248.82 323.645 1248.84 320.269V319.165Z" fill="black" fill-opacity="0.31"/>
<g filter="url(#filter7_b)">
<mask id="path-18-inside-2" fill="white">
<path fill-rule="evenodd" clip-rule="evenodd" d="M1178.28 136.927L1204.54 93.3745C1206.68 89.8242 1203.82 85.3611 1199.7 85.8243L478.063 166.956C466.484 168.258 455.802 173.814 448.089 182.546L426.19 207.336L1178.28 136.927Z"/>
</mask>
<path d="M1204.54 93.3745L1205.4 93.8908L1205.4 93.8908L1204.54 93.3745ZM1178.28 136.927L1178.38 137.923L1178.88 137.876L1179.14 137.444L1178.28 136.927ZM1199.7 85.8243L1199.59 84.8306L1199.59 84.8306L1199.7 85.8243ZM478.063 166.956L478.174 167.95L478.174 167.95L478.063 166.956ZM448.089 182.546L448.838 183.208L448.838 183.208L448.089 182.546ZM426.19 207.336L425.441 206.674L423.768 208.567L426.283 208.332L426.19 207.336ZM1203.68 92.8582L1177.43 136.411L1179.14 137.444L1205.4 93.8908L1203.68 92.8582ZM1199.81 86.818C1203.11 86.4475 1205.4 90.018 1203.68 92.8582L1205.4 93.8908C1207.96 89.6304 1204.53 84.2748 1199.59 84.8306L1199.81 86.818ZM478.174 167.95L1199.81 86.818L1199.59 84.8306L477.951 165.963L478.174 167.95ZM448.838 183.208C456.388 174.662 466.843 169.224 478.174 167.95L477.951 165.963C466.126 167.292 455.217 172.966 447.339 181.884L448.838 183.208ZM426.94 207.998L448.838 183.208L447.339 181.884L425.441 206.674L426.94 207.998ZM426.283 208.332L1178.38 137.923L1178.19 135.932L426.097 206.34L426.283 208.332Z" fill="white" mask="url(#path-18-inside-2)"/>
</g>
<g filter="url(#filter8_d)">
<path d="M939.034 388.8C939.717 389.774 939.895 391.098 939.543 392.731C939.19 394.364 938.315 396.255 936.967 398.285C934.272 402.343 929.751 406.869 924.033 410.879C918.315 414.89 912.52 417.6 907.787 418.752C905.419 419.328 903.343 419.507 901.687 419.282C900.032 419.058 898.848 418.439 898.165 417.465C897.481 416.491 897.303 415.167 897.655 413.534C898.008 411.9 898.883 410.009 900.232 407.979C902.926 403.921 907.447 399.396 913.165 395.385C918.883 391.375 924.678 388.665 929.411 387.513C931.779 386.937 933.855 386.757 935.511 386.982C937.166 387.207 938.35 387.826 939.034 388.8Z" stroke="white" shape-rendering="crispEdges"/>
</g>
<ellipse cx="508.007" cy="124.251" rx="10.6888" ry="4.18259" transform="rotate(-35.0454 508.007 124.251)" fill="white"/>
<ellipse cx="1147.92" cy="50.0141" rx="19.2706" ry="7.54068" transform="rotate(-35.0454 1147.92 50.0141)" fill="white"/>
<path d="M1113.86 47.2056C1114.27 47.7834 1114.39 48.5866 1114.16 49.6161C1113.94 50.6464 1113.39 51.8515 1112.52 53.157C1110.79 55.7653 1107.87 58.6843 1104.18 61.2751C1100.49 63.8659 1096.75 65.6118 1093.71 66.3519C1092.18 66.7224 1090.86 66.8345 1089.82 66.6927C1088.77 66.5511 1088.06 66.1655 1087.65 65.5877C1087.25 65.0098 1087.13 64.2067 1087.35 63.1772C1087.57 62.1469 1088.13 60.9417 1089 59.6362C1090.73 57.0279 1093.64 54.1089 1097.34 51.5181C1101.03 48.9273 1104.77 47.1815 1107.81 46.4413C1109.33 46.0708 1110.65 45.9588 1111.7 46.1005C1112.74 46.2421 1113.46 46.6277 1113.86 47.2056Z" stroke="white"/>
<ellipse cx="1055.2" cy="64.1341" rx="14.5243" ry="5.12995" transform="rotate(-35.0454 1055.2 64.1341)" fill="white"/>
<g filter="url(#filter9_d)">
<path d="M799.321 332.735C799.344 332.767 799.388 332.868 799.321 333.114C799.256 333.357 799.099 333.672 798.837 334.04C798.314 334.772 797.441 335.622 796.332 336.399C795.224 337.177 794.127 337.709 793.261 337.95C792.826 338.072 792.476 338.112 792.225 338.091C791.971 338.07 791.892 337.994 791.869 337.962C791.846 337.929 791.802 337.829 791.869 337.582C791.934 337.339 792.091 337.025 792.354 336.657C792.876 335.925 793.75 335.074 794.858 334.297C795.966 333.52 797.063 332.988 797.929 332.746C798.365 332.625 798.714 332.584 798.965 332.605C799.219 332.627 799.298 332.702 799.321 332.735Z" stroke="white"/>
<path d="M788.408 344.423C788.43 344.456 788.474 344.556 788.408 344.802C788.342 345.045 788.185 345.36 787.923 345.728C787.401 346.46 786.527 347.311 785.419 348.088C784.311 348.865 783.213 349.397 782.347 349.639C781.912 349.76 781.563 349.801 781.312 349.78C781.058 349.758 780.978 349.683 780.956 349.65C780.933 349.617 780.889 349.517 780.955 349.271C781.021 349.028 781.178 348.713 781.44 348.345C781.962 347.613 782.836 346.763 783.944 345.985C785.052 345.208 786.15 344.676 787.016 344.435C787.451 344.313 787.8 344.273 788.051 344.294C788.305 344.315 788.385 344.391 788.408 344.423Z" stroke="white"/>
<path d="M777.693 356.111C777.716 356.144 777.76 356.244 777.694 356.49C777.628 356.733 777.471 357.048 777.209 357.416C776.687 358.148 775.813 358.999 774.705 359.776C773.597 360.553 772.499 361.085 771.633 361.327C771.198 361.448 770.848 361.489 770.598 361.468C770.343 361.446 770.264 361.371 770.241 361.338C770.219 361.305 770.175 361.205 770.241 360.959C770.307 360.716 770.463 360.401 770.726 360.033C771.248 359.301 772.122 358.451 773.23 357.673C774.338 356.896 775.436 356.364 776.302 356.123C776.737 356.001 777.086 355.961 777.337 355.982C777.591 356.003 777.671 356.079 777.693 356.111Z" stroke="white"/>
<path d="M766.98 367.8C767.002 367.832 767.046 367.933 766.98 368.179C766.914 368.422 766.757 368.737 766.495 369.105C765.973 369.837 765.099 370.687 763.991 371.464C762.883 372.242 761.785 372.774 760.919 373.015C760.484 373.137 760.135 373.177 759.884 373.156C759.63 373.135 759.55 373.059 759.528 373.027C759.505 372.994 759.461 372.894 759.527 372.647C759.593 372.404 759.75 372.09 760.012 371.722C760.534 370.99 761.408 370.139 762.516 369.362C763.624 368.585 764.722 368.053 765.588 367.811C766.023 367.69 766.372 367.649 766.623 367.67C766.877 367.692 766.957 367.767 766.98 367.8Z" stroke="white"/>
<path d="M823.671 329.811C823.694 329.843 823.738 329.943 823.671 330.19C823.606 330.433 823.449 330.747 823.186 331.115C822.664 331.847 821.79 332.698 820.682 333.475C819.574 334.252 818.477 334.784 817.611 335.026C817.176 335.147 816.826 335.188 816.575 335.167C816.321 335.145 816.242 335.07 816.219 335.037C816.196 335.005 816.152 334.904 816.219 334.658C816.284 334.415 816.441 334.1 816.703 333.732C817.226 333 818.099 332.15 819.208 331.373C820.316 330.595 821.413 330.063 822.279 329.822C822.714 329.7 823.064 329.66 823.315 329.681C823.569 329.702 823.648 329.778 823.671 329.811Z" stroke="white"/>
<path d="M812.757 341.499C812.78 341.532 812.824 341.632 812.758 341.878C812.692 342.121 812.535 342.436 812.273 342.804C811.751 343.536 810.877 344.386 809.769 345.164C808.661 345.941 807.563 346.473 806.697 346.715C806.262 346.836 805.912 346.876 805.662 346.855C805.407 346.834 805.328 346.758 805.305 346.726C805.283 346.693 805.239 346.593 805.305 346.347C805.37 346.104 805.527 345.789 805.79 345.421C806.312 344.689 807.186 343.838 808.294 343.061C809.402 342.284 810.5 341.752 811.365 341.51C811.801 341.389 812.15 341.348 812.401 341.37C812.655 341.391 812.735 341.466 812.757 341.499Z" stroke="white"/>
<path d="M802.043 353.187C802.066 353.22 802.11 353.32 802.044 353.567C801.978 353.81 801.821 354.124 801.559 354.492C801.037 355.224 800.163 356.075 799.055 356.852C797.946 357.629 796.849 358.161 795.983 358.403C795.548 358.524 795.198 358.565 794.948 358.544C794.693 358.522 794.614 358.447 794.591 358.414C794.568 358.382 794.524 358.281 794.591 358.035C794.656 357.792 794.813 357.477 795.076 357.109C795.598 356.377 796.472 355.527 797.58 354.75C798.688 353.972 799.785 353.44 800.651 353.199C801.087 353.077 801.436 353.037 801.687 353.058C801.941 353.079 802.02 353.155 802.043 353.187Z" stroke="white"/>
<path d="M791.329 364.876C791.352 364.908 791.396 365.009 791.33 365.255C791.264 365.498 791.107 365.813 790.845 366.181C790.323 366.913 789.449 367.763 788.341 368.541C787.233 369.318 786.135 369.85 785.269 370.091C784.834 370.213 784.484 370.253 784.234 370.232C783.979 370.211 783.9 370.135 783.877 370.103C783.855 370.07 783.811 369.97 783.877 369.724C783.943 369.481 784.099 369.166 784.362 368.798C784.884 368.066 785.758 367.215 786.866 366.438C787.974 365.661 789.072 365.129 789.938 364.887C790.373 364.766 790.722 364.725 790.973 364.746C791.227 364.768 791.307 364.843 791.329 364.876Z" stroke="white"/>
<path d="M811.983 330.786C812.006 330.818 812.05 330.918 811.984 331.165C811.918 331.408 811.761 331.723 811.499 332.09C810.977 332.822 810.103 333.673 808.995 334.45C807.886 335.227 806.789 335.759 805.923 336.001C805.488 336.123 805.138 336.163 804.888 336.142C804.633 336.12 804.554 336.045 804.531 336.012C804.508 335.98 804.464 335.88 804.531 335.633C804.596 335.39 804.753 335.075 805.016 334.707C805.538 333.976 806.412 333.125 807.52 332.348C808.628 331.571 809.725 331.038 810.591 330.797C811.027 330.675 811.376 330.635 811.627 330.656C811.881 330.678 811.96 330.753 811.983 330.786Z" stroke="white"/>
<path d="M801.07 342.474C801.092 342.507 801.136 342.607 801.07 342.853C801.004 343.096 800.848 343.411 800.585 343.779C800.063 344.511 799.189 345.361 798.081 346.139C796.973 346.916 795.875 347.448 795.009 347.69C794.574 347.811 794.225 347.851 793.974 347.83C793.72 347.809 793.64 347.733 793.618 347.701C793.595 347.668 793.551 347.568 793.617 347.322C793.683 347.079 793.84 346.764 794.102 346.396C794.624 345.664 795.498 344.813 796.606 344.036C797.714 343.259 798.812 342.727 799.678 342.485C800.113 342.364 800.463 342.323 800.713 342.345C800.968 342.366 801.047 342.442 801.07 342.474Z" stroke="white"/>
<path d="M790.356 354.163C790.378 354.195 790.422 354.295 790.356 354.542C790.29 354.785 790.133 355.1 789.871 355.467C789.349 356.199 788.475 357.05 787.367 357.827C786.259 358.604 785.161 359.136 784.295 359.378C783.86 359.5 783.511 359.54 783.26 359.519C783.006 359.497 782.926 359.422 782.904 359.389C782.881 359.357 782.837 359.257 782.903 359.01C782.969 358.767 783.126 358.452 783.388 358.084C783.91 357.353 784.784 356.502 785.892 355.725C787 354.947 788.098 354.415 788.964 354.174C789.399 354.052 789.748 354.012 789.999 354.033C790.253 354.055 790.333 354.13 790.356 354.163Z" stroke="white"/>
<path d="M779.642 365.851C779.664 365.884 779.708 365.984 779.642 366.23C779.577 366.473 779.42 366.788 779.157 367.156C778.635 367.888 777.761 368.738 776.653 369.516C775.545 370.293 774.448 370.825 773.582 371.067C773.146 371.188 772.797 371.228 772.546 371.207C772.292 371.186 772.212 371.11 772.19 371.078C772.167 371.045 772.123 370.945 772.189 370.699C772.255 370.456 772.412 370.141 772.674 369.773C773.196 369.041 774.07 368.19 775.178 367.413C776.286 366.636 777.384 366.104 778.25 365.862C778.685 365.741 779.035 365.7 779.285 365.722C779.54 365.743 779.619 365.818 779.642 365.851Z" stroke="white"/>
<path d="M836.333 327.864C836.356 327.896 836.4 327.997 836.333 328.243C836.268 328.486 836.111 328.801 835.849 329.169C835.326 329.901 834.453 330.751 833.344 331.528C832.236 332.306 831.139 332.838 830.273 333.079C829.838 333.201 829.488 333.241 829.237 333.22C828.983 333.199 828.904 333.123 828.881 333.09C828.858 333.058 828.814 332.958 828.881 332.711C828.946 332.468 829.103 332.154 829.366 331.786C829.888 331.054 830.762 330.203 831.87 329.426C832.978 328.649 834.075 328.117 834.941 327.875C835.376 327.753 835.726 327.713 835.977 327.734C836.231 327.756 836.31 327.831 836.333 327.864Z" stroke="white"/>
<path d="M825.419 339.552C825.442 339.585 825.486 339.685 825.42 339.931C825.354 340.174 825.197 340.489 824.935 340.857C824.413 341.589 823.539 342.44 822.431 343.217C821.323 343.994 820.225 344.526 819.359 344.768C818.924 344.889 818.575 344.93 818.324 344.908C818.07 344.887 817.99 344.812 817.967 344.779C817.945 344.746 817.901 344.646 817.967 344.4C818.033 344.157 818.19 343.842 818.452 343.474C818.974 342.742 819.848 341.892 820.956 341.114C822.064 340.337 823.162 339.805 824.028 339.563C824.463 339.442 824.812 339.402 825.063 339.423C825.317 339.444 825.397 339.52 825.419 339.552Z" stroke="white"/>
<path d="M814.705 351.241C814.728 351.273 814.772 351.373 814.706 351.62C814.64 351.863 814.483 352.178 814.221 352.546C813.699 353.277 812.825 354.128 811.717 354.905C810.609 355.683 809.511 356.215 808.645 356.456C808.21 356.578 807.86 356.618 807.61 356.597C807.355 356.575 807.276 356.5 807.253 356.467C807.231 356.435 807.187 356.335 807.253 356.088C807.318 355.845 807.475 355.53 807.738 355.163C808.26 354.431 809.134 353.58 810.242 352.803C811.35 352.026 812.448 351.494 813.313 351.252C813.749 351.13 814.098 351.09 814.349 351.111C814.603 351.133 814.683 351.208 814.705 351.241Z" stroke="white"/>
<path d="M803.991 362.929C804.014 362.962 804.058 363.062 803.992 363.308C803.926 363.551 803.769 363.866 803.507 364.234C802.985 364.966 802.111 365.817 801.003 366.594C799.895 367.371 798.797 367.903 797.931 368.145C797.496 368.266 797.147 368.307 796.896 368.285C796.642 368.264 796.562 368.188 796.54 368.156C796.517 368.123 796.473 368.023 796.539 367.777C796.605 367.534 796.762 367.219 797.024 366.851C797.546 366.119 798.42 365.269 799.528 364.491C800.636 363.714 801.734 363.182 802.6 362.94C803.035 362.819 803.384 362.779 803.635 362.8C803.889 362.821 803.969 362.897 803.991 362.929Z" stroke="white"/>
</g>
<g filter="url(#filter10_d)">
<path d="M945.904 373.676C947.052 375.313 947.33 377.509 946.76 380.152C946.189 382.795 944.778 385.833 942.625 389.076C938.319 395.56 931.108 402.774 922.002 409.16C912.897 415.547 903.658 419.871 896.096 421.711C892.313 422.631 888.976 422.924 886.297 422.56C883.618 422.196 881.647 421.187 880.499 419.55C879.352 417.913 879.073 415.717 879.644 413.074C880.214 410.431 881.625 407.393 883.779 404.15C888.084 397.666 895.295 390.452 904.401 384.066C913.507 377.679 922.745 373.355 930.307 371.515C934.09 370.595 937.427 370.302 940.107 370.666C942.786 371.03 944.756 372.039 945.904 373.676Z" stroke="white" shape-rendering="crispEdges"/>
</g>
<g filter="url(#filter11_d)">
<path d="M496.888 208.853L522.682 206.444C524.053 206.316 524.858 207.948 523.921 208.957L518.335 214.979C513.131 220.589 505.826 223.777 498.174 223.777H480.514C479.192 223.777 478.517 222.192 479.432 221.238L486.518 213.856C489.262 210.997 492.943 209.222 496.888 208.853Z" stroke="white" shape-rendering="crispEdges"/>
</g>
<g filter="url(#filter12_d)">
<path d="M314.241 403.676L340.036 401.266C341.407 401.138 342.211 402.771 341.275 403.78L335.689 409.802C330.485 415.412 323.179 418.6 315.527 418.6H297.868C296.546 418.6 295.87 417.015 296.785 416.061L303.872 408.678C306.616 405.82 310.296 404.044 314.241 403.676Z" stroke="white" shape-rendering="crispEdges"/>
</g>
<defs>
<filter id="filter0_b" x="246.667" y="277.45" width="996.238" height="203.286" filterUnits="userSpaceOnUse" color-interpolation-filters="sRGB">
<feFlood flood-opacity="0" result="BackgroundImageFix"/>
<feGaussianBlur in="BackgroundImage" stdDeviation="12"/>
<feComposite in2="SourceAlpha" operator="in" result="effect1_backgroundBlur"/>
<feBlend mode="normal" in="SourceGraphic" in2="effect1_backgroundBlur" result="shape"/>
</filter>
<filter id="filter1_f" x="0" y="458.485" width="1492" height="23.0693" filterUnits="userSpaceOnUse" color-interpolation-filters="sRGB">
<feFlood flood-opacity="0" result="BackgroundImageFix"/>
<feBlend mode="normal" in="SourceGraphic" in2="BackgroundImageFix" result="shape"/>
<feGaussianBlur stdDeviation="3" result="effect1_foregroundBlur"/>
</filter>
<filter id="filter2_b" x="230.756" y="125.547" width="979.876" height="337.188" filterUnits="userSpaceOnUse" color-interpolation-filters="sRGB">
<feFlood flood-opacity="0" result="BackgroundImageFix"/>
<feGaussianBlur in="BackgroundImage" stdDeviation="3"/>
<feComposite in2="SourceAlpha" operator="in" result="effect1_backgroundBlur"/>
<feBlend mode="normal" in="SourceGraphic" in2="effect1_backgroundBlur" result="shape"/>
</filter>
<filter id="filter3_b" x="667.966" y="54.4487" width="538.288" height="407.691" filterUnits="userSpaceOnUse" color-interpolation-filters="sRGB">
<feFlood flood-opacity="0" result="BackgroundImageFix"/>
<feGaussianBlur in="BackgroundImage" stdDeviation="3"/>
<feComposite in2="SourceAlpha" operator="in" result="effect1_backgroundBlur"/>
<feBlend mode="normal" in="SourceGraphic" in2="effect1_backgroundBlur" result="shape"/>
</filter>
<filter id="filter4_b" x="229.416" y="158.502" width="375.277" height="305.272" filterUnits="userSpaceOnUse" color-interpolation-filters="sRGB">
<feFlood flood-opacity="0" result="BackgroundImageFix"/>
<feGaussianBlur in="BackgroundImage" stdDeviation="3"/>
<feComposite in2="SourceAlpha" operator="in" result="effect1_backgroundBlur"/>
<feBlend mode="normal" in="SourceGraphic" in2="effect1_backgroundBlur" result="shape"/>
</filter>
<filter id="filter5_b" x="456.539" y="12.1343" width="751.198" height="139.161" filterUnits="userSpaceOnUse" color-interpolation-filters="sRGB">
<feFlood flood-opacity="0" result="BackgroundImageFix"/>
<feGaussianBlur in="BackgroundImage" stdDeviation="3"/>
<feComposite in2="SourceAlpha" operator="in" result="effect1_backgroundBlur"/>
<feBlend mode="normal" in="SourceGraphic" in2="effect1_backgroundBlur" result="shape"/>
</filter>
<filter id="filter6_b" x="667.965" y="-4.21924" width="538.29" height="467.881" filterUnits="userSpaceOnUse" color-interpolation-filters="sRGB">
<feFlood flood-opacity="0" result="BackgroundImageFix"/>
<feGaussianBlur in="BackgroundImage" stdDeviation="3"/>
<feComposite in2="SourceAlpha" operator="in" result="effect1_backgroundBlur"/>
<feBlend mode="normal" in="SourceGraphic" in2="effect1_backgroundBlur" result="shape"/>
</filter>
<filter id="filter7_b" x="420.19" y="79.791" width="791.078" height="133.545" filterUnits="userSpaceOnUse" color-interpolation-filters="sRGB">
<feFlood flood-opacity="0" result="BackgroundImageFix"/>
<feGaussianBlur in="BackgroundImage" stdDeviation="3"/>
<feComposite in2="SourceAlpha" operator="in" result="effect1_backgroundBlur"/>
<feBlend mode="normal" in="SourceGraphic" in2="effect1_backgroundBlur" result="shape"/>
</filter>
<filter id="filter8_d" x="888.034" y="380.356" width="61.1292" height="69.5518" filterUnits="userSpaceOnUse" color-interpolation-filters="sRGB">
<feFlood flood-opacity="0" result="BackgroundImageFix"/>
<feColorMatrix in="SourceAlpha" type="matrix" values="0 0 0 0 0 0 0 0 0 0 0 0 0 0 0 0 0 0 127 0" result="hardAlpha"/>
<feOffset dy="20"/>
<feGaussianBlur stdDeviation="2"/>
<feComposite in2="hardAlpha" operator="out"/>
<feColorMatrix type="matrix" values="0 0 0 0 0 0 0 0 0 0 0 0 0 0 0 0 0 0 0.25 0"/>
<feBlend mode="normal" in2="BackgroundImageFix" result="effect1_dropShadow"/>
<feBlend mode="normal" in="SourceGraphic" in2="effect1_dropShadow" result="shape"/>
</filter>
<filter id="filter9_d" x="754.094" y="326.116" width="87.6731" height="72.6582" filterUnits="userSpaceOnUse" color-interpolation-filters="sRGB">
<feFlood flood-opacity="0" result="BackgroundImageFix"/>
<feColorMatrix in="SourceAlpha" type="matrix" values="0 0 0 0 0 0 0 0 0 0 0 0 0 0 0 0 0 0 127 0" result="hardAlpha"/>
<feOffset dy="20"/>
<feGaussianBlur stdDeviation="2"/>
<feComposite in2="hardAlpha" operator="out"/>
<feColorMatrix type="matrix" values="0 0 0 0 0 0 0 0 0 0 0 0 0 0 0 0 0 0 0.15 0"/>
<feBlend mode="normal" in2="BackgroundImageFix" result="effect1_dropShadow"/>
<feBlend mode="normal" in="SourceGraphic" in2="effect1_dropShadow" result="shape"/>
</filter>
<filter id="filter10_d" x="867.002" y="360.432" width="92.3986" height="96.3618" filterUnits="userSpaceOnUse" color-interpolation-filters="sRGB">
<feFlood flood-opacity="0" result="BackgroundImageFix"/>
<feColorMatrix in="SourceAlpha" type="matrix" values="0 0 0 0 0 0 0 0 0 0 0 0 0 0 0 0 0 0 127 0" result="hardAlpha"/>
<feOffset dy="20"/>
<feGaussianBlur stdDeviation="2"/>
<feComposite in2="hardAlpha" operator="out"/>
<feColorMatrix type="matrix" values="0 0 0 0 0 0 0 0 0 0 0 0 0 0 0 0 0 0 0.25 0"/>
<feBlend mode="normal" in2="BackgroundImageFix" result="effect1_dropShadow"/>
<feBlend mode="normal" in="SourceGraphic" in2="effect1_dropShadow" result="shape"/>
</filter>
<filter id="filter11_d" x="474.51" y="205.937" width="54.3171" height="42.3403" filterUnits="userSpaceOnUse" color-interpolation-filters="sRGB">
<feFlood flood-opacity="0" result="BackgroundImageFix"/>
<feColorMatrix in="SourceAlpha" type="matrix" values="0 0 0 0 0 0 0 0 0 0 0 0 0 0 0 0 0 0 127 0" result="hardAlpha"/>
<feOffset dy="20"/>
<feGaussianBlur stdDeviation="2"/>
<feComposite in2="hardAlpha" operator="out"/>
<feColorMatrix type="matrix" values="0 0 0 0 0 0 0 0 0 0 0 0 0 0 0 0 0 0 0.15 0"/>
<feBlend mode="normal" in2="BackgroundImageFix" result="effect1_dropShadow"/>
<feBlend mode="normal" in="SourceGraphic" in2="effect1_dropShadow" result="shape"/>
</filter>
<filter id="filter12_d" x="291.864" y="400.759" width="54.3171" height="42.3403" filterUnits="userSpaceOnUse" color-interpolation-filters="sRGB">
<feFlood flood-opacity="0" result="BackgroundImageFix"/>
<feColorMatrix in="SourceAlpha" type="matrix" values="0 0 0 0 0 0 0 0 0 0 0 0 0 0 0 0 0 0 127 0" result="hardAlpha"/>
<feOffset dy="20"/>
<feGaussianBlur stdDeviation="2"/>
<feComposite in2="hardAlpha" operator="out"/>
<feColorMatrix type="matrix" values="0 0 0 0 0 0 0 0 0 0 0 0 0 0 0 0 0 0 0.25 0"/>
<feBlend mode="normal" in2="BackgroundImageFix" result="effect1_dropShadow"/>
<feBlend mode="normal" in="SourceGraphic" in2="effect1_dropShadow" result="shape"/>
</filter>
<linearGradient id="paint0_linear" x1="549.434" y1="456.736" x2="984.683" y2="719.61" gradientUnits="userSpaceOnUse">
<stop stop-color="#F1C149" stop-opacity="0.21"/>
<stop offset="1" stop-color="#E95252" stop-opacity="0.37"/>
</linearGradient>
<linearGradient id="paint1_linear" x1="1626.03" y1="464.487" x2="594.795" y2="851.595" gradientUnits="userSpaceOnUse">
<stop stop-color="#0059FF"/>
<stop offset="1" stop-color="#4183FF" stop-opacity="0"/>
</linearGradient>
<linearGradient id="paint2_linear" x1="591.209" y1="231.184" x2="845.168" y2="631.161" gradientUnits="userSpaceOnUse">
<stop stop-color="#8EB5FF" stop-opacity="0.36"/>
<stop offset="1" stop-color="#FF8541" stop-opacity="0.29"/>
</linearGradient>
<linearGradient id="paint3_linear" x1="489.511" y1="173.243" x2="940.104" y2="618.494" gradientUnits="userSpaceOnUse">
<stop stop-color="#ECF2FF" stop-opacity="0.44"/>
<stop offset="1" stop-color="#A9C7FF" stop-opacity="0.26"/>
</linearGradient>
<linearGradient id="paint4_linear" x1="796.547" y1="355.902" x2="945.365" y2="-43.9551" gradientUnits="userSpaceOnUse">
<stop stop-color="#E95A52" stop-opacity="0.07"/>
<stop offset="1" stop-color="#4183FF" stop-opacity="0.22"/>
</linearGradient>
<linearGradient id="paint5_linear" x1="559.425" y1="324.844" x2="432.857" y2="449.183" gradientUnits="userSpaceOnUse">
<stop stop-color="#E95A52" stop-opacity="0.19"/>
<stop offset="1" stop-color="#F1C149" stop-opacity="0.17"/>
</linearGradient>
<linearGradient id="paint6_linear" x1="442.132" y1="144.988" x2="853.39" y2="488.52" gradientUnits="userSpaceOnUse">
<stop stop-color="#E95A52" stop-opacity="0.12"/>
<stop offset="1" stop-color="#4183FF" stop-opacity="0.27"/>
</linearGradient>
<linearGradient id="paint7_linear" x1="1093.5" y1="-10.9492" x2="798.497" y2="457.843" gradientUnits="userSpaceOnUse">
<stop stop-color="white"/>
<stop offset="1" stop-color="white"/>
</linearGradient>
</defs>
</svg>
