<svg width="120" height="120" viewBox="0 0 120 120" fill="none" xmlns="http://www.w3.org/2000/svg"><path fill="#FBDEDC" d="M0 0h7.681v120H0zm10.029 0h7.681v120h-7.681zm10.028 0h7.681v120h-7.681zm11.031 0h7.681v120h-7.681zm10.029 0h7.681v120h-7.681zm10.028 0h7.681v120h-7.681zm10.029 0h7.681v120h-7.681zm10.028 0h7.681v120h-7.681zm11.031 0h7.681v120h-7.681zm10.029 0h7.681v120h-7.681zm10.028 0h7.681v120h-7.681zm10.029 0H120v120h-7.681z"/><path d="M68 40H52.286A4.285 4.285 0 0 0 48 44.286v31.428A4.285 4.285 0 0 0 52.286 80H68a4.286 4.286 0 0 0 4.286-4.286V44.286A4.286 4.286 0 0 0 68 40zm1.429 35.714A1.428 1.428 0 0 1 68 77.143H52.286a1.429 1.429 0 0 1-1.429-1.429V44.286a1.429 1.429 0 0 1 1.429-1.429h1.428a1.429 1.429 0 0 0 1.429 1.429h10a1.429 1.429 0 0 0 1.428-1.429H68a1.429 1.429 0 0 1 1.429 1.429v31.428z" fill="#000"/></svg>