<svg width="120" height="120" viewBox="0 0 120 120" fill="none" xmlns="http://www.w3.org/2000/svg"><path fill="#D9E6FF" d="M0 0h7.681v120H0zm10.029 0h7.681v120h-7.681zm10.028 0h7.681v120h-7.681zm11.031 0h7.681v120h-7.681zm10.029 0h7.681v120h-7.681zm10.028 0h7.681v120h-7.681zm10.029 0h7.681v120h-7.681zm10.028 0h7.681v120h-7.681zm11.031 0h7.681v120h-7.681zm10.029 0h7.681v120h-7.681zm10.028 0h7.681v120h-7.681zm10.029 0H120v120h-7.681z"/><path d="M72.3 43.8c3.035 0 5.517 2.386 5.69 5.394l.01.337v15.538c0 3.052-2.373 5.547-5.366 5.721l-.335.01H47.701c-3.036 0-5.518-2.386-5.691-5.394l-.01-.337V49.531c0-3.052 2.373-5.547 5.366-5.721l.335-.01h24.598zm-24.6 3.82c-.974 0-1.777.738-1.887 1.688l-.013.223v15.538c0 .98.734 1.787 1.68 1.897l.22.013h24.6c.974 0 1.777-.737 1.887-1.687l.013-.223V49.531c0-.98-.734-1.788-1.68-1.898l-.22-.013H47.7zM70.8 73.6H49.2a1.8 1.8 0 0 0 0 3.6h21.6a1.8 1.8 0 0 0 0-3.6z" fill="#000"/></svg>