<svg fill="none" height="96" viewBox="0 0 96 96" width="96" xmlns="http://www.w3.org/2000/svg"><g fill="#d2d5d9" fill-opacity=".65"><path d="m0 0h5.8302v96.0002h-5.8302z"/><path d="m8.19739 0h5.8302v96.0002h-5.8302z"/><path d="m16.3945 0h5.8302v96.0002h-5.8302z"/><path d="m24.5918 0h5.8302v96.0002h-5.8302z"/><path d="m32.7891 0h5.8302v96.0002h-5.8302z"/><path d="m40.9862 0h5.8302v96.0002h-5.8302z"/><path d="m49.1836 0h5.8302v96.0002h-5.8302z"/><path d="m57.381 0h5.8302v96.0002h-5.8302z"/><path d="m65.5776 0h5.8302v96.0002h-5.8302z"/><path d="m73.7754 0h5.8302v96.0002h-5.8302z"/><path d="m81.9727 0h5.8302v96.0002h-5.8302z"/><path d="m90.1698 0h5.8302v96.0002h-5.8302z"/></g><path d="m57.9999 28c2.2824 0 4.1481 1.7842 4.2785 4.0339l.0073.2518v31.4286c0 2.2824-1.7842 4.1481-4.0339 4.2784l-.2519.0073h-20c-2.2824 0-4.148-1.7842-4.2784-4.0339l-.0073-.2518v-31.4286c0-2.2824 1.7842-4.1481 4.0339-4.2784l.2518-.0073zm-10 35c-.7889 0-1.4285.6396-1.4285 1.4286s.6396 1.4285 1.4285 1.4285c.789 0 1.4286-.6395 1.4286-1.4285s-.6396-1.4286-1.4286-1.4286zm10-32.1429h-20c-.7326 0-1.3364.5515-1.4189 1.262l-.0096.1666v28.5714l22.8571-.0014v-28.57c0-.7326-.5515-1.3364-1.262-1.4189z" fill="#202d40"/></svg>