<svg fill="none" height="96" viewBox="0 0 96 96" width="96" xmlns="http://www.w3.org/2000/svg"><g fill="#d9e6ff" fill-opacity=".65"><path d="m0 0h5.48571v96h-5.48571z"/><path d="m8.22852 0h5.48571v96h-5.48571z"/><path d="m16.457 0h5.48571v96h-5.48571z"/><path d="m24.6855 0h5.48571v96h-5.48571z"/><path d="m32.9141 0h5.48571v96h-5.48571z"/><path d="m41.1431 0h5.48571v96h-5.48571z"/><path d="m49.3716 0h5.48571v96h-5.48571z"/><path d="m57.6001 0h5.48571v96h-5.48571z"/><path d="m65.8286 0h5.48571v96h-5.48571z"/><path d="m74.0571 0h5.48571v96h-5.48571z"/><path d="m82.2856 0h5.48571v96h-5.48571z"/><path d="m90.5142 0h5.48571v96h-5.48571z"/></g><path d="m60.4777 33.1299c1.1366 0 2.2267.4515 3.0305 1.2552.8037.8038 1.2555 1.8939 1.2555 3.0305v16.4999c0 1.1367-.4515 2.2268-1.2552 3.0305-.8038.8037-1.8939 1.2552-3.0305 1.2552h-25.2141c-1.1366 0-2.2266-.4515-3.0303-1.2552s-1.2556-1.8938-1.2556-3.0305v-16.4999c0-1.1366.4516-2.2267 1.2553-3.0305.8037-.8037 1.8938-1.2552 3.0304-1.2552zm-25.214 2.8571c-.3788 0-.7422.1505-1.0101.4184-.2679.268-.4184.6313-.4184 1.0102l.0003 16.4999c0 .3789.1505.7423.4184 1.0102s.6313.4184 1.0101.4184h25.214c.3789 0 .7422-.1505 1.0102-.4184.2679-.2679.4184-.6313.4184-1.0102l-.0003-16.4999c0-.3789-.1505-.7422-.4185-1.0102-.2679-.2679-.6312-.4184-1.0101-.4184z" fill="#202d40"/><path d="m58.5851 60.061h-21.17c-.7892 0-1.429.6396-1.429 1.4285 0 .789.6398 1.4285 1.429 1.4285h21.17c.7892 0 1.429-.6395 1.429-1.4285 0-.7889-.6398-1.4285-1.429-1.4285z" fill="#202d40"/></svg>