<svg width="120" height="120" viewBox="0 0 120 120" fill="none" xmlns="http://www.w3.org/2000/svg"><path fill="#D2D5D9" d="M0 0h7.681v120H0zm10.029 0h7.681v120h-7.681zm10.028 0h7.681v120h-7.681zm11.031 0h7.681v120h-7.681zm10.029 0h7.681v120h-7.681zm10.028 0h7.681v120h-7.681zm10.029 0h7.681v120h-7.681zm10.028 0h7.681v120h-7.681zm11.031 0h7.681v120h-7.681zm10.029 0h7.681v120h-7.681zm10.028 0h7.681v120h-7.681zm10.029 0H120v120h-7.681z"/><path d="M70 40a4.286 4.286 0 0 1 4.278 4.034l.008.252v31.428a4.286 4.286 0 0 1-4.034 4.279L70 80H50a4.286 4.286 0 0 1-4.278-4.034l-.008-.252V44.286a4.286 4.286 0 0 1 4.034-4.279L50 40h20zM60 75a1.429 1.429 0 1 0 0 2.857A1.429 1.429 0 0 0 60 75zm10-32.143H50a1.43 1.43 0 0 0-1.419 1.262l-.01.167v28.571l22.858-.001v-28.57a1.43 1.43 0 0 0-1.262-1.42L70 42.858z" fill="#000"/></svg>