<svg fill="none" height="96" viewBox="0 0 96 96" width="96" xmlns="http://www.w3.org/2000/svg"><g fill="#fbdedc" fill-opacity=".65"><path d="m0 0h5.8302v96h-5.8302z"/><path d="m8.19727 0h5.8302v96h-5.8302z"/><path d="m16.3945 0h5.8302v96h-5.8302z"/><path d="m24.5918 0h5.8302v96h-5.8302z"/><path d="m32.7891 0h5.8302v96h-5.8302z"/><path d="m40.9863 0h5.8302v96h-5.8302z"/><path d="m49.1836 0h5.8302v96h-5.8302z"/><path d="m57.3809 0h5.8302v96h-5.8302z"/><path d="m65.5781 0h5.8302v96h-5.8302z"/><path d="m73.7754 0h5.8302v96h-5.8302z"/><path d="m81.9727 0h5.8302v96h-5.8302z"/><path d="m90.1694 0h5.8302v96h-5.8302z"/></g><path d="m56 28h-15.7143c-1.1366 0-2.2267.4515-3.0304 1.2553-.8038.8037-1.2553 1.8938-1.2553 3.0304v31.4286c0 1.1366.4515 2.2267 1.2553 3.0304.8037.8038 1.8938 1.2553 3.0304 1.2553h15.7143c1.1366 0 2.2267-.4515 3.0305-1.2553.8037-.8037 1.2552-1.8938 1.2552-3.0304v-31.4286c0-1.1366-.4515-2.2267-1.2552-3.0304-.8038-.8038-1.8939-1.2553-3.0305-1.2553zm1.4286 35.7143c0 .3789-.1505.7422-.4184 1.0101-.268.2679-.6313.4185-1.0102.4185h-15.7143c-.3789 0-.7422-.1506-1.0101-.4185s-.4185-.6312-.4185-1.0101v-31.4286c0-.3789.1506-.7422.4185-1.0101s.6312-.4185 1.0101-.4185h1.4286c0 .3789.1505.7423.4184 1.0102s.6313.4184 1.0102.4184h10c.3788 0 .7422-.1505 1.0101-.4184s.4184-.6313.4184-1.0102h1.4286c.3789 0 .7422.1506 1.0102.4185.2679.2679.4184.6312.4184 1.0101z" fill="#202d40"/></svg>