<svg fill="none" height="308" viewBox="0 0 1080 308" width="1080" xmlns="http://www.w3.org/2000/svg" xmlns:xlink="http://www.w3.org/1999/xlink">
    <linearGradient id="a" gradientUnits="userSpaceOnUse" x1="700" x2="310" y1="18" y2="18"><stop offset="0" stop-color="#fff"/><stop offset=".5" stop-color="#d7faff" stop-opacity="0"/><stop offset="1" stop-color="#fff"/></linearGradient>
    <g fill="#fff" transform="translate(0 -6)"><path d="M22.3599 146.68V154.04H79.7999V146.68H22.3599ZM14.6799 168.76V176.36H40.5199C32.5999 192.2 26.1999 201.96 21.3199 205.64C20.9199 205.88 20.2799 206.12 19.4799 206.36L21.4799 214.12C40.3599 212.84 57.7999 211.08 73.8799 208.84C75.3199 211.56 76.5999 214.28 77.8799 217L84.6799 212.28C80.6799 204.28 75.0799 194.84 67.7999 184.04L61.7199 187.8C64.7599 192.6 67.5599 197.32 70.1199 201.88C57.1599 203.72 44.0399 205.08 30.9199 205.88C36.1199 199.96 42.1199 190.12 48.9999 176.36H86.9199V168.76H14.6799Z M209.88 155.32V162.52H235.64V155.32H226.84C225.88 150.92 224.84 147 223.8 143.56L216.2 144.84C217.48 148.04 218.6 151.48 219.64 155.32H209.88ZM217.8 166.2L211.56 168.2C213.16 178.04 214.44 188.28 215.48 198.84L221.56 197.32C220.44 185.64 219.24 175.24 217.8 166.2ZM235.32 197.64L229.8 199.56C231.48 189.32 232.76 178.28 233.72 166.36L226.92 165.4C226.12 178.04 224.92 190.04 223.32 201.4C218.84 202.52 214.28 203.48 209.64 204.2L211.56 211.72C220.04 209.88 227.96 207.64 235.32 204.92V197.64ZM272.2 157.48H263.32V142.76H255.96V157.48H247.32V145.88H240.04V164.12H279.4V145.88H272.2V157.48ZM237.24 169.24V176.28H255C254.52 178.36 253.96 180.36 253.24 182.36H239V216.12H245.8V189.08H251.16V214.76H257.48V189.08H262.36V214.68H268.68V189.08H274.2V208.04C274.2 209.08 273.8 209.64 273 209.64L269.8 209.32L271.64 216.12H275.24C279.08 216.12 281 213.88 281 209.48V182.36H260.68C261.32 180.36 261.96 178.36 262.44 176.28H282.76V169.24H237.24Z M802.12 150.12V157H830.84V163.08H806.6V169.64H830.84V175.8H799.48V182.84H869.88V175.8H838.52V169.64H863V163.08H838.52V157H867.24V150.12H850.6C851.8 147.88 852.76 145.56 853.48 143.08L845.32 142.04C844.68 144.84 843.72 147.56 842.52 150.12H827.08C826.04 147.24 825 144.6 823.88 142.28L815.88 143.56C817.16 145.56 818.28 147.72 819.32 150.12H802.12ZM831.4 184.36C831.08 186.12 830.68 187.88 830.12 189.64H801.32V196.84H826.2C825.08 198.28 823.8 199.56 822.2 200.84C817.16 204.68 808.92 207.56 797.56 209.56L800.68 217C813.96 214.28 823.16 210.6 828.44 205.96C830.84 203.8 832.84 201.32 834.52 198.44C839.88 207.32 851.08 213.4 868.2 216.76L872.2 209.56C857.32 207.32 847.16 203.08 841.72 196.84H868.12V189.64H838.12C838.52 188.2 838.84 186.68 839.08 185.16L831.4 184.36Z M1065.32 158.28H1050.6C1053.32 154.68 1055.96 150.28 1058.6 145.08L1050.76 142.2C1048.36 147.96 1045.56 153.32 1042.28 158.28H1012.28L1017.4 155.72C1014.84 151.24 1012.12 147.08 1009.4 143.4L1002.52 146.76C1005.24 150.12 1007.88 153.96 1010.44 158.28H996.04V177.64H1003.56V165.56H1057.72V177.64H1065.32V158.28ZM1009.08 170.6V177.32H1041.4C1038.04 179 1033.48 181.08 1027.88 183.48V189.56H996.28V196.76H1027.88V206.36C1027.88 208.36 1027 209.4 1025.32 209.4C1021.88 209.4 1018.76 209.32 1015.88 209.24L1017.72 216.12H1027.88C1032.92 216.12 1035.48 213.72 1035.48 209V196.76H1065.32V189.56H1035.48V186.76C1041.72 183.72 1047.32 180.6 1052.36 177.32V170.6H1009.08ZM1028.52 141.8L1021.64 145.16C1024.36 149 1026.92 153.32 1029.32 158.2L1036.12 154.76C1033.72 150.04 1031.16 145.72 1028.52 141.8Z"/></g>
</svg>

    