<svg fill="" height="308" viewBox="0 0 1080 308" width="1080" xmlns="http://www.w3.org/2000/svg" xmlns:xlink="http://www.w3.org/1999/xlink">
    <linearGradient id="a" gradientUnits="userSpaceOnUse" x1="700" x2="310" y1="18" y2="18"><stop offset="0" stop-color="#fff"/><stop offset=".5" stop-color="#d7faff" stop-opacity="0"/><stop offset="1" stop-color="#fff"/></linearGradient>
    <g fill="" transform="translate(0 -6)"><path d="M438.92 155.48V204.12H406.92V211.48H478.52V204.12H446.6V155.48H473.48V148.2H412.12V155.48H438.92Z M638.2 160.68H641.08V216.6H648.76V198.52H671.4V191.24H648.76V179.48H671.24V172.12H648.76V160.68H674.44V153.24H641.48C642.68 150.2 643.88 147 645 143.64L637.32 141.96C632.68 155.56 627 166.28 620.36 174.04L625.8 180.6C630.36 175 634.52 168.36 638.2 160.68ZM610.92 173.88V216.6H618.6V162.84C621.8 157.4 624.44 151.64 626.52 145.56L619.32 142.2C615.4 154.2 609.32 164.76 601.08 173.8L603.64 181.96C606.2 179.32 608.68 176.6 610.92 173.88Z"/></g>
</svg>
    