<svg width="16" height="16" viewBox="0 0 16 16" fill="white" xmlns="http://www.w3.org/2000/svg">
<path d="M2.593 0.707606C2.20228 0.316887 1.56873 0.317111 1.17829 0.708106L0.706261 1.1808C0.316148 1.57146 0.316441 2.20436 0.706916 2.59467L6.11461 8L0.707135 13.4075C0.3166 13.798 0.316613 14.4312 0.707164 14.8217L1.17828 15.2928C1.56881 15.6833 2.20196 15.6833 2.59247 15.2928L8 9.88524L13.4075 15.2928C13.798 15.6833 14.4312 15.6833 14.8217 15.2928L15.2928 14.8217C15.6834 14.4312 15.6834 13.798 15.2929 13.4075L9.88539 8L15.2931 2.59467C15.6836 2.20436 15.6839 1.57146 15.2937 1.1808L14.8217 0.708106C14.4313 0.31711 13.7977 0.316887 13.407 0.707606L8 6.11461L2.593 0.707606Z" />
</svg>
